<?xml version="1.0" standalone="no"?>
<!DOCTYPE svg PUBLIC "-//W3C//DTD SVG 20010904//EN"
 "http://www.w3.org/TR/2001/REC-SVG-20010904/DTD/svg10.dtd">
<svg version="1.0" xmlns="http://www.w3.org/2000/svg"
 width="180.000000pt" height="180.000000pt" viewBox="0 0 180.000000 180.000000"
 preserveAspectRatio="xMidYMid meet">
<metadata>
Created by potrace 1.11, written by Peter Selinger 2001-2013
</metadata>
<g transform="translate(0.000000,180.000000) scale(0.100000,-0.100000)"
fill="#000000" stroke="none">
<path d="M725 1674 c-136 -32 -249 -77 -274 -107 -7 -9 -19 -17 -25 -17 -6 0
-39 -23 -73 -50 -277 -224 -353 -597 -191 -930 47 -96 61 -114 157 -209 118
-116 198 -179 283 -222 137 -69 334 -96 484 -65 163 33 271 90 418 221 59 52
111 95 116 95 6 0 27 -7 47 -15 20 -9 43 -13 50 -11 7 3 13 1 13 -4 0 -9 51
-40 65 -40 3 0 5 8 5 18 -1 12 -26 29 -83 55 -45 20 -88 37 -94 37 -7 0 -13 7
-13 15 0 20 -26 19 -46 -2 -22 -25 -64 -92 -64 -102 0 -15 -105 -105 -163
-140 -212 -126 -444 -143 -690 -51 -32 12 -56 24 -54 27 3 2 33 -3 67 -12 211
-55 420 -27 601 79 82 48 178 130 167 141 -4 4 -35 -18 -70 -49 -69 -62 -206
-135 -303 -161 -33 -8 -109 -18 -170 -22 -138 -7 -236 15 -375 84 -80 40 -110
62 -191 143 -84 83 -102 108 -142 190 -57 118 -77 209 -77 343 0 233 92 426
275 580 197 166 468 216 713 133 143 -49 228 -106 339 -229 127 -140 185 -295
186 -495 1 -97 -2 -116 -19 -140 -11 -15 -33 -62 -48 -105 -16 -43 -50 -112
-77 -153 -52 -79 -59 -101 -33 -111 10 -4 30 9 57 34 23 23 47 39 53 37 5 -3
18 13 28 33 15 32 20 35 29 22 7 -8 19 -13 29 -11 10 2 19 -5 23 -19 5 -15 9
-18 15 -9 6 9 13 9 31 -3 13 -9 41 -23 62 -32 37 -15 37 -15 37 8 0 18 -12 29
-56 50 -30 15 -53 31 -50 36 3 4 -6 7 -19 5 -19 -2 -25 2 -25 18 0 15 -3 18
-13 10 -8 -7 -18 -6 -31 4 -19 14 -19 15 2 76 25 72 27 94 10 101 -10 4 -10 8
1 15 18 13 19 195 2 277 -62 287 -285 523 -573 606 -71 20 -274 35 -323 23z
m837 -1176 c-7 -7 -12 -8 -12 -2 0 14 12 26 19 19 2 -3 -1 -11 -7 -17z m-987
-308 c3 -5 -1 -10 -9 -10 -9 0 -16 5 -16 10 0 6 4 10 9 10 6 0 13 -4 16 -10z"/>
<path d="M830 1502 c-14 -11 -51 -91 -99 -213 l-77 -194 -78 -5 c-66 -4 -81
-8 -97 -29 -40 -49 -10 -106 61 -117 46 -8 49 -18 20 -74 -20 -40 -21 -40 -81
-40 -50 0 -64 -4 -84 -25 -14 -13 -25 -36 -25 -50 0 -26 31 -64 53 -66 21 -1
49 -7 53 -12 3 -2 -13 -50 -36 -105 -22 -55 -40 -112 -40 -126 0 -52 70 -86
113 -53 8 6 36 62 60 122 25 61 51 122 58 138 l12 27 228 0 c208 0 229 -2 238
-18 5 -9 30 -69 55 -132 26 -63 54 -122 63 -132 35 -39 123 -9 123 42 0 11
-18 65 -40 120 -22 55 -40 105 -40 110 0 6 9 10 20 10 60 0 100 52 80 104 -13
35 -39 46 -109 46 -59 0 -61 1 -75 33 -31 75 -31 77 7 77 49 0 87 33 87 75 0
55 -30 75 -112 75 l-69 0 -23 53 c-13 28 -47 113 -76 187 -68 176 -111 220
-170 172z m76 -337 c13 -31 24 -60 24 -65 0 -6 -25 -10 -55 -10 -40 0 -55 4
-55 14 0 22 42 116 52 116 5 0 20 -25 34 -55z m112 -274 c11 -27 18 -52 14
-55 -3 -3 -77 -6 -164 -6 -120 0 -158 3 -158 13 0 6 9 31 20 55 l19 42 124 0
124 0 21 -49z"/>
<path d="M1692 920 c0 -14 2 -19 5 -12 2 6 2 18 0 25 -3 6 -5 1 -5 -13z"/>
<path d="M1693 774 c-7 -57 -17 -100 -24 -105 -11 -6 -10 -12 3 -26 8 -10 18
-25 20 -33 3 -8 6 2 6 24 0 21 3 83 7 137 4 54 5 99 3 99 -2 0 -9 -43 -15 -96z"/>
<path d="M1621 636 c-8 -10 -9 -16 -1 -21 5 -3 13 1 16 10 9 22 -1 29 -15 11z"/>
</g>
</svg>
